# xmcd CD database file
#
# Track frame offsets:
#	150
#	13539
#	27507
#	44106
#	54014
#
# Disc length: 895 seconds
#
# Revision: 0
# Processed by: cddbd v1.4PL0 Copyright (c) Steve Scherf et al.
# Submitted via: CDex 1.50Beta7
#
DISCID=38037d05
DTITLE=Djivilli - Niglo de gadoue
DYEAR=2003
DGENRE=Jazz
TTITLE0=Niglo de gadoue (hot strings swing)
TTITLE1=Mystery swing
TTITLE2=Chez doudou
TTITLE3=Swing for nénette
TTITLE4=Les yeux noirs
EXTD=YEAR: 2003
EXTT0=
EXTT1=
EXTT2=
EXTT3=
EXTT4=
PLAYORDER=
